<svg xmlns="http://www.w3.org/2000/svg" viewBox="0 0 144 144">
  <defs>
    <style>
      .big {
        fill: none;
        stroke: #00D1FF;
        stroke-width: 4;
        stroke-linecap: round;
        stroke-linejoin: round;
      }
      .small {
        fill: none;
        stroke: #00D1FF;
        stroke-width: 2;
        stroke-linecap: round;
        stroke-linejoin: round;
      }
    </style>
  </defs>

  <g class="big">    
    <circle cx="72" cy="72" r="40" />

    <line x1="72" y1="22" x2="72" y2="52" />
    <line x1="72" y1="92" x2="72" y2="122" />
    
    <line x1="22" y1="72" x2="52" y2="72" />
    <line x1="92" y1="72" x2="122" y2="72" />
  </g>

  <g class="small">
     <line x1="72" y1="62" x2="72" y2="82" />
    <line x1="62" y1="72" x2="82" y2="72" />
  </g>

  <g class="big">
    <path d="
      M 141 82
      a 70 70 0 0 0 0 -20
      l -15 -1
      a 55 55 0 0 0 -9 -20
      l 10 -11
      a 70 70 0 0 0 -14 -14
      l -10 11
      a 55 55 0 0 0 -20 -9
      l -1 -15
      a 70 70 0 0 0 -20 0
      l -1 15
      a 55 55 0 0 0 -21 9
      l -11 -11
      a 70 70 0 0 0 -14 14
      l 11 11
      a 55 55 0 0 0 -8 20
      l -15 1
      a 70 70 0 0 0 0 20
      l 15 1
      a 55 55 0 0 0 9 20
      l -11 11
      a 70 70 0 0 0 14 14
      l 11 -11
      a 55 55 0 0 0 20 9
      l 1 15
      a 70 70 0 0 0 20 0
      l 1 -15
      a 55 55 0 0 0 21 -9
      l 10 11
      a 70 70 0 0 0 14 -14
      l -11 -11
      a 55 55 0 0 0 9 -21
      Z
      " />
  </g>
</svg>
